<svg width="51" height="51" viewBox="0 0 51 51" fill="none" xmlns="http://www.w3.org/2000/svg">
<path d="M0.768 51V0.599997H22.8C28.272 0.599997 33.072 1.656 37.2 3.768C41.328 5.88 44.544 8.808 46.848 12.552C49.152 16.296 50.304 20.712 50.304 25.8C50.304 30.84 49.152 35.256 46.848 39.048C44.544 42.792 41.328 45.72 37.2 47.832C33.072 49.944 28.272 51 22.8 51H0.768ZM10.128 43.08H22.368C26.16 43.08 29.424 42.36 32.16 40.92C34.944 39.48 37.08 37.464 38.568 34.872C40.104 32.28 40.872 29.256 40.872 25.8C40.872 22.296 40.104 19.272 38.568 16.728C37.08 14.136 34.944 12.12 32.16 10.68C29.424 9.24 26.16 8.52 22.368 8.52H10.128V43.08Z" fill="black"/>
</svg>
